# This file is brought to you by Roblox Corporation
# Generated by Roblox Studio

mtllib custom_note_template.mtl

g Union1

v 1.5 0.0005 -1.5 
v 1.5 0.0005 1.5 
v 1.5 -0.0005 -1.5 
v 1.5 -0.0005 1.5 
v 1.5 0.0005 1.5 
v -1.5 0.0005 1.5 
v 1.5 -0.0005 1.5 
v -1.5 -0.0005 1.5 
v -1.5 0.0005 1.5 
v -1.5 0.0005 -1.5 
v -1.5 -0.0005 1.5 
v -1.5 -0.0005 -1.5 
v -1.5 -0.0005 -1.5 
v -0.5 -0.0005 -1.5 
v -0.5 -0.0005 0 
v -0.5 -0.0005 -1.5 
v -1.5 -0.0005 -1.5 
v -1.5 0.0005 -1.5 
v 1.5 -0.0005 1.5 
v 0.416025 -0.0005 0.27735 
v 0.474342 -0.0005 0.158114 
v -1.5 -0.0005 1.5 
v -0.5 -0.0005 0 
v -0.5 -0.0005 0 
v -0.474342 -0.0005 0.158114 
v -0.474342 -0.0005 0.158114 
v -0.416025 -0.0005 0.27735 
v -0.416025 -0.0005 0.27735 
v -0.353553 -0.0005 0.353553 
v -0.353553 -0.0005 0.353553 
v -0.27735 -0.0005 0.416025 
v -0.27735 -0.0005 0.416025 
v -0.158114 -0.0005 0.474342 
v -0.158114 -0.0005 0.474342 
v 0.353553 -0.0005 0.353553 
v 0.416025 -0.0005 0.27735 
v 1.5 -0.0005 -1.5 
v 0.5 -0.0005 0 
v 1.5 -0.0005 -1.5 
v 0.5 0.0005 -1.5 
v 1.5 0.0005 -1.5 
v 1.5 0.0005 -1.5 
v 0.5 0.0005 -1.5 
v 0.5 0.0005 0 
v -0.5 -0.0005 -1.5 
v -0.5 0.0005 -1.5 
v -0.5 0.0005 -1.5 
v -1.5 0.0005 -1.5 
v -0.5 0.0005 0 
v -1.5 0.0005 1.5 
v -0.5 0.0005 0 
v -0.474342 0.0005 0.158114 
v -0.5 0.0005 0 
v -0.416025 0.0005 0.27735 
v -0.474342 0.0005 0.158114 
v -0.353553 0.0005 0.353553 
v -0.416025 0.0005 0.27735 
v 1.5 0.0005 1.5 
v 0.158114 0.0005 0.474342 
v 0.27735 0.0005 0.416025 
v 0.158114 0.0005 0.474342 
v 0.353553 0.0005 0.353553 
v 0.27735 0.0005 0.416025 
v 0.5 0.0005 0 
v 0.474342 0.0005 0.158114 
v 0.474342 0.0005 0.158114 
v 0.416025 0.0005 0.27735 
v 0.416025 0.0005 0.27735 
v 0.353553 0.0005 0.353553 
v -0.27735 0.0005 0.416025 
v -0.353553 0.0005 0.353553 
v -0.158114 0.0005 0.474342 
v -0.27735 0.0005 0.416025 
v 0 0.0005 0.5 
v -0.158114 0.0005 0.474342 
v 0.158114 0.0005 0.474342 
v 0 0.0005 0.5 
v 0.5 0.0005 0 
v 0.5 -0.0005 -1.5 
v 0.5 -0.0005 0 
v 0.5 -0.0005 -1.5 
v 0.5 0.0005 -1.5 
v -0.158114 -0.0005 0.474342 
v 0 -0.0005 0.5 
v 0 -0.0005 0.5 
v 0.158114 -0.0005 0.474342 
v 0.158114 -0.0005 0.474342 
v 0.27735 -0.0005 0.416025 
v 0.27735 -0.0005 0.416025 
v 0.353553 -0.0005 0.353553 
v 0.474342 -0.0005 0.158114 
v 0.5 -0.0005 0 
v -0.5 -0.0005 -1.5 
v -0.5 0.0005 -1.5 
v -0.5 -0.0005 0 
v -0.5 0.0005 0 
v -0.474342 -0.0005 0.158114 
v -0.5 -0.0005 0 
v -0.474342 0.0005 0.158114 
v -0.416025 -0.0005 0.27735 
v -0.474342 -0.0005 0.158114 
v -0.416025 0.0005 0.27735 
v -0.353553 -0.0005 0.353553 
v -0.416025 -0.0005 0.27735 
v -0.353553 0.0005 0.353553 
v -0.27735 -0.0005 0.416025 
v -0.353553 -0.0005 0.353553 
v -0.27735 0.0005 0.416025 
v -0.158114 -0.0005 0.474342 
v -0.27735 -0.0005 0.416025 
v -0.158114 0.0005 0.474342 
v 0 -0.0005 0.5 
v -0.158114 -0.0005 0.474342 
v -0.5 0.0005 -1.5 
v -0.5 0.0005 0 
v -0.5 -0.0005 0 
v -0.474342 -0.0005 0.158114 
v -0.5 0.0005 0 
v -0.474342 0.0005 0.158114 
v -0.416025 -0.0005 0.27735 
v -0.474342 0.0005 0.158114 
v -0.416025 0.0005 0.27735 
v -0.353553 0.0005 0.353553 
v -0.353553 -0.0005 0.353553 
v -0.416025 0.0005 0.27735 
v -0.27735 -0.0005 0.416025 
v -0.353553 0.0005 0.353553 
v -0.27735 0.0005 0.416025 
v -0.158114 -0.0005 0.474342 
v -0.27735 0.0005 0.416025 
v -0.158114 0.0005 0.474342 
v 0 -0.0005 0.5 
v -0.158114 0.0005 0.474342 
v 0 0.0005 0.5 
v 0.353553 -0.0005 0.353553 
v 0.27735 0.0005 0.416025 
v 0.353553 0.0005 0.353553 
v 0.158114 -0.0005 0.474342 
v 0 0.0005 0.5 
v 0.158114 0.0005 0.474342 
v 0.27735 -0.0005 0.416025 
v 0.158114 0.0005 0.474342 
v 0.27735 0.0005 0.416025 
v 0.5 -0.0005 0 
v 0.474342 0.0005 0.158114 
v 0.5 0.0005 0 
v 0.5 -0.0005 -1.5 
v 0.5 -0.0005 0 
v 0.5 0.0005 0 
v 0.416025 -0.0005 0.27735 
v 0.353553 0.0005 0.353553 
v 0.416025 0.0005 0.27735 
v 0.158114 0.0005 0.474342 
v 0.27735 -0.0005 0.416025 
v 0.158114 -0.0005 0.474342 
v 0.27735 0.0005 0.416025 
v 0.353553 -0.0005 0.353553 
v 0.27735 -0.0005 0.416025 
v 0.474342 0.0005 0.158114 
v 0.5 -0.0005 0 
v 0.474342 -0.0005 0.158114 
v 0.5 -0.0005 -1.5 
v 0.5 0.0005 0 
v 0.5 0.0005 -1.5 
v 0.416025 0.0005 0.27735 
v 0.474342 -0.0005 0.158114 
v 0.416025 -0.0005 0.27735 
v 0.353553 -0.0005 0.353553 
v 0.353553 0.0005 0.353553 
v 0.416025 -0.0005 0.27735 
v 0 0.0005 0.5 
v 0.158114 -0.0005 0.474342 
v 0 -0.0005 0.5 
v 0.474342 -0.0005 0.158114 
v 0.416025 0.0005 0.27735 
v 0.474342 0.0005 0.158114 

vn 1 0 0 
vn 1 0 0 
vn 1 0 0 
vn 1 0 0 
vn 0 0 1 
vn 0 0 1 
vn 0 0 1 
vn 0 0 1 
vn -1 0 0 
vn -1 0 0 
vn -1 0 0 
vn -1 0 0 
vn 0 -1 0 
vn 0 -1 0 
vn 0 -1 0 
vn 0 0 -1 
vn 0 0 -1 
vn 0 0 -1 
vn 0 -1 0 
vn 0 -1 0 
vn 0 -1 0 
vn 0 -1 0 
vn 0 -1 0 
vn 0 -1 0 
vn 0 -1 0 
vn 0 -1 0 
vn 0 -1 0 
vn 0 -1 0 
vn 0 -1 0 
vn 0 -1 0 
vn 0 -1 0 
vn 0 -1 0 
vn 0 -1 0 
vn 0 -1 0 
vn 0 -1 0 
vn 0 -1 0 
vn 0 -1 0 
vn 0 -1 0 
vn 0 0 -1 
vn 0 0 -1 
vn 0 0 -1 
vn 0 1 0 
vn 0 1 0 
vn 0 1 0 
vn 0 0 -1 
vn 0 0 -1 
vn 0 1 0 
vn 0 1 0 
vn 0 1 0 
vn 0 1 0 
vn 0 1 0 
vn 0 1 0 
vn 0 1 0 
vn 0 1 0 
vn 0 1 0 
vn 0 1 0 
vn 0 1 0 
vn 0 1 0 
vn 0 1 0 
vn 0 1 0 
vn 0 1 0 
vn 0 1 0 
vn 0 1 0 
vn 0 1 0 
vn 0 1 0 
vn 0 1 0 
vn 0 1 0 
vn 0 1 0 
vn 0 1 0 
vn 0 1 0 
vn 0 1 0 
vn 0 1 0 
vn 0 1 0 
vn 0 1 0 
vn 0 1 0 
vn 0 1 0 
vn 0 1 0 
vn 0 1 0 
vn 0 -1 0 
vn 0 -1 0 
vn 0 0 -1 
vn 0 0 -1 
vn 0 -1 0 
vn 0 -1 0 
vn 0 -1 0 
vn 0 -1 0 
vn 0 -1 0 
vn 0 -1 0 
vn 0 -1 0 
vn 0 -1 0 
vn 0 -1 0 
vn 0 -1 0 
vn 1 0 0 
vn 1 0 0 
vn 1 0 0 
vn 1 0 0 
vn 0.944882 0 -0.314961 
vn 1 0 0 
vn 0.944882 0 -0.314961 
vn 0.834646 0 -0.551181 
vn 0.944882 0 -0.314961 
vn 0.834646 0 -0.551181 
vn 0.708661 0 -0.708661 
vn 0.834646 0 -0.551181 
vn 0.708661 0 -0.708661 
vn 0.551181 0 -0.834646 
vn 0.708661 0 -0.708661 
vn 0.551181 0 -0.834646 
vn 0.314961 0 -0.944882 
vn 0.551181 0 -0.834646 
vn 0.314961 0 -0.944882 
vn 0 0 -1 
vn 0.314961 0 -0.944882 
vn 1 0 0 
vn 1 0 0 
vn 1 0 0 
vn 0.944882 0 -0.314961 
vn 1 0 0 
vn 0.944882 0 -0.314961 
vn 0.834646 0 -0.551181 
vn 0.944882 0 -0.314961 
vn 0.834646 0 -0.551181 
vn 0.708661 0 -0.708661 
vn 0.708661 0 -0.708661 
vn 0.834646 0 -0.551181 
vn 0.551181 0 -0.834646 
vn 0.708661 0 -0.708661 
vn 0.551181 0 -0.834646 
vn 0.314961 0 -0.944882 
vn 0.551181 0 -0.834646 
vn 0.314961 0 -0.944882 
vn 0 0 -1 
vn 0.314961 0 -0.944882 
vn 0 0 -1 
vn -0.708661 0 -0.708661 
vn -0.551181 0 -0.834646 
vn -0.708661 0 -0.708661 
vn -0.314961 0 -0.944882 
vn 0 0 -1 
vn -0.314961 0 -0.944882 
vn -0.551181 0 -0.834646 
vn -0.314961 0 -0.944882 
vn -0.551181 0 -0.834646 
vn -1 0 0 
vn -0.944882 0 -0.314961 
vn -1 0 0 
vn -1 0 0 
vn -1 0 0 
vn -1 0 0 
vn -0.834646 0 -0.551181 
vn -0.708661 0 -0.708661 
vn -0.834646 0 -0.551181 
vn -0.314961 0 -0.944882 
vn -0.551181 0 -0.834646 
vn -0.314961 0 -0.944882 
vn -0.551181 0 -0.834646 
vn -0.708661 0 -0.708661 
vn -0.551181 0 -0.834646 
vn -0.944882 0 -0.314961 
vn -1 0 0 
vn -0.944882 0 -0.314961 
vn -1 0 0 
vn -1 0 0 
vn -1 0 0 
vn -0.834646 0 -0.551181 
vn -0.944882 0 -0.314961 
vn -0.834646 0 -0.551181 
vn -0.708661 0 -0.708661 
vn -0.708661 0 -0.708661 
vn -0.834646 0 -0.551181 
vn 0 0 -1 
vn -0.314961 0 -0.944882 
vn 0 0 -1 
vn -0.944882 0 -0.314961 
vn -0.834646 0 -0.551181 
vn -0.944882 0 -0.314961 

vt 2.1875 -38.9375 
vt 1.8125 -38.9375 
vt 2.1875 -39.0625 
vt 1.8125 -39.0625 
vt 2.1875 -38.9375 
vt 1.8125 -38.9375 
vt 2.1875 -39.0625 
vt 1.8125 -39.0625 
vt 2.1875 -38.9375 
vt 1.8125 -38.9375 
vt 2.1875 -39.0625 
vt 1.8125 -39.0625 
vt 1.8125 -39.1875 
vt 1.9375 -39.1875 
vt 1.9375 -39 
vt 2.0625 -39.0625 
vt 2.1875 -39.0625 
vt 2.1875 -38.9375 
vt 2.1875 -38.8125 
vt 2.052 -38.9653 
vt 2.05929 -38.9802 
vt 1.8125 -38.8125 
vt 1.9375 -39 
vt 1.9375 -39 
vt 1.94071 -38.9802 
vt 1.94071 -38.9802 
vt 1.948 -38.9653 
vt 1.948 -38.9653 
vt 1.95581 -38.9558 
vt 1.95581 -38.9558 
vt 1.96533 -38.948 
vt 1.96533 -38.948 
vt 1.98024 -38.9407 
vt 1.98024 -38.9407 
vt 2.04419 -38.9558 
vt 2.052 -38.9653 
vt 2.1875 -39.1875 
vt 2.0625 -39 
vt 1.8125 -39.0625 
vt 1.9375 -38.9375 
vt 1.8125 -38.9375 
vt 1.8125 -39.1875 
vt 1.9375 -39.1875 
vt 1.9375 -39 
vt 2.0625 -39.0625 
vt 2.0625 -38.9375 
vt 2.0625 -39.1875 
vt 2.1875 -39.1875 
vt 2.0625 -39 
vt 2.1875 -38.8125 
vt 2.0625 -39 
vt 2.05929 -38.9802 
vt 2.0625 -39 
vt 2.052 -38.9653 
vt 2.05929 -38.9802 
vt 2.04419 -38.9558 
vt 2.052 -38.9653 
vt 1.8125 -38.8125 
vt 1.98024 -38.9407 
vt 1.96533 -38.948 
vt 1.98024 -38.9407 
vt 1.95581 -38.9558 
vt 1.96533 -38.948 
vt 1.9375 -39 
vt 1.94071 -38.9802 
vt 1.94071 -38.9802 
vt 1.948 -38.9653 
vt 1.948 -38.9653 
vt 1.95581 -38.9558 
vt 2.03467 -38.948 
vt 2.04419 -38.9558 
vt 2.01976 -38.9407 
vt 2.03467 -38.948 
vt 2 -38.9375 
vt 2.01976 -38.9407 
vt 1.98024 -38.9407 
vt 2 -38.9375 
vt 1.9375 -39 
vt 2.0625 -39.1875 
vt 2.0625 -39 
vt 1.9375 -39.0625 
vt 1.9375 -38.9375 
vt 1.98024 -38.9407 
vt 2 -38.9375 
vt 2 -38.9375 
vt 2.01976 -38.9407 
vt 2.01976 -38.9407 
vt 2.03467 -38.948 
vt 2.03467 -38.948 
vt 2.04419 -38.9558 
vt 2.05929 -38.9802 
vt 2.0625 -39 
vt 2.1875 -39.0625 
vt 2.1875 -38.9375 
vt 2 -39.0625 
vt 2 -38.9375 
vt 1.98024 -39.0625 
vt 2 -39.0625 
vt 1.98024 -38.9375 
vt 1.96533 -39.0625 
vt 1.98024 -39.0625 
vt 1.96533 -38.9375 
vt 1.95581 -39.0625 
vt 1.96533 -39.0625 
vt 2.04419 -38.9375 
vt 2.03467 -39.0625 
vt 2.04419 -39.0625 
vt 2.03467 -38.9375 
vt 2.01976 -39.0625 
vt 2.03467 -39.0625 
vt 2.01976 -38.9375 
vt 2 -39.0625 
vt 2.01976 -39.0625 
vt 2.1875 -38.9375 
vt 2 -38.9375 
vt 2 -39.0625 
vt 1.98024 -39.0625 
vt 2 -38.9375 
vt 1.98024 -38.9375 
vt 1.96533 -39.0625 
vt 1.98024 -38.9375 
vt 1.96533 -38.9375 
vt 1.95581 -38.9375 
vt 1.95581 -39.0625 
vt 1.96533 -38.9375 
vt 2.03467 -39.0625 
vt 2.04419 -38.9375 
vt 2.03467 -38.9375 
vt 2.01976 -39.0625 
vt 2.03467 -38.9375 
vt 2.01976 -38.9375 
vt 2 -39.0625 
vt 2.01976 -38.9375 
vt 2 -38.9375 
vt 1.95581 -39.0625 
vt 1.96533 -38.9375 
vt 1.95581 -38.9375 
vt 1.98024 -39.0625 
vt 2 -38.9375 
vt 1.98024 -38.9375 
vt 1.96533 -39.0625 
vt 1.98024 -38.9375 
vt 1.96533 -38.9375 
vt 2 -39.0625 
vt 2.01976 -38.9375 
vt 2 -38.9375 
vt 1.8125 -39.0625 
vt 2 -39.0625 
vt 2 -38.9375 
vt 2.03467 -39.0625 
vt 2.04419 -38.9375 
vt 2.03467 -38.9375 
vt 1.98024 -38.9375 
vt 1.96533 -39.0625 
vt 1.98024 -39.0625 
vt 1.96533 -38.9375 
vt 1.95581 -39.0625 
vt 1.96533 -39.0625 
vt 2.01976 -38.9375 
vt 2 -39.0625 
vt 2.01976 -39.0625 
vt 1.8125 -39.0625 
vt 2 -38.9375 
vt 1.8125 -38.9375 
vt 2.03467 -38.9375 
vt 2.01976 -39.0625 
vt 2.03467 -39.0625 
vt 2.04419 -39.0625 
vt 2.04419 -38.9375 
vt 2.03467 -39.0625 
vt 2 -38.9375 
vt 1.98024 -39.0625 
vt 2 -39.0625 
vt 2.01976 -39.0625 
vt 2.03467 -38.9375 
vt 2.01976 -38.9375 

usemtl Union1Mtl

f 1/1/1 2/2/2 3/3/3 
f 3/3/3 2/2/2 4/4/4 
f 5/5/5 6/6/6 7/7/7 
f 7/7/7 6/6/6 8/8/8 
f 9/9/9 10/10/10 11/11/11 
f 11/11/11 10/10/10 12/12/12 
f 13/13/13 14/14/14 15/15/15 
f 16/16/16 17/17/17 18/18/18 
f 19/19/19 20/20/20 21/21/21 
f 22/22/22 13/13/13 23/23/23 
f 22/22/22 24/24/24 25/25/25 
f 26/26/26 27/27/27 22/22/22 
f 28/28/28 29/29/29 22/22/22 
f 22/22/22 30/30/30 31/31/31 
f 22/22/22 32/32/32 33/33/33 
f 19/19/19 22/22/22 34/34/34 
f 19/19/19 35/35/35 36/36/36 
f 37/37/37 19/19/19 38/38/38 
f 39/39/39 40/40/40 41/41/41 
f 42/42/42 43/43/43 44/44/44 
f 45/45/45 18/18/18 46/46/46 
f 47/47/47 48/48/48 49/49/49 
f 48/48/48 50/50/50 51/51/51 
f 50/50/50 52/52/52 53/53/53 
f 50/50/50 54/54/54 55/55/55 
f 50/50/50 56/56/56 57/57/57 
f 50/50/50 58/58/58 59/59/59 
f 58/58/58 60/60/60 61/61/61 
f 58/58/58 62/62/62 63/63/63 
f 58/58/58 64/64/64 65/65/65 
f 66/66/66 67/67/67 58/58/58 
f 68/68/68 69/69/69 58/58/58 
f 50/50/50 70/70/70 71/71/71 
f 50/50/50 72/72/72 73/73/73 
f 50/50/50 74/74/74 75/75/75 
f 50/50/50 76/76/76 77/77/77 
f 58/58/58 42/42/42 78/78/78 
f 79/79/79 37/37/37 80/80/80 
f 39/39/39 81/81/81 82/82/82 
f 19/19/19 83/83/83 84/84/84 
f 19/19/19 85/85/85 86/86/86 
f 19/19/19 87/87/87 88/88/88 
f 19/19/19 89/89/89 90/90/90 
f 19/19/19 91/91/91 92/92/92 
f 93/93/93 94/94/94 95/95/95 
f 96/96/96 97/97/97 98/98/98 
f 99/99/99 100/100/100 101/101/101 
f 102/102/102 103/103/103 104/104/104 
f 105/105/105 106/106/106 107/107/107 
f 108/108/108 109/109/109 110/110/110 
f 111/111/111 112/112/112 113/113/113 
f 114/114/114 115/115/115 116/116/116 
f 117/117/117 118/118/118 119/119/119 
f 120/120/120 121/121/121 122/122/122 
f 123/123/123 124/124/124 125/125/125 
f 126/126/126 127/127/127 128/128/128 
f 129/129/129 130/130/130 131/131/131 
f 132/132/132 133/133/133 134/134/134 
f 135/135/135 136/136/136 137/137/137 
f 138/138/138 139/139/139 140/140/140 
f 141/141/141 142/142/142 143/143/143 
f 144/144/144 145/145/145 146/146/146 
f 147/147/147 148/148/148 149/149/149 
f 150/150/150 151/151/151 152/152/152 
f 153/153/153 154/154/154 155/155/155 
f 156/156/156 157/157/157 158/158/158 
f 159/159/159 160/160/160 161/161/161 
f 162/162/162 163/163/163 164/164/164 
f 165/165/165 166/166/166 167/167/167 
f 168/168/168 169/169/169 170/170/170 
f 171/171/171 172/172/172 173/173/173 
f 174/174/174 175/175/175 176/176/176 

